<?xml version="1.0" encoding="UTF-8"?>
<svg viewBox="0 0 450 450" xmlns="http://www.w3.org/2000/svg">
 <path d="m135.99 149.6c12.716 42.961 0.44591 87.65-27.406 99.815-27.851 12.166-60.738-12.798-73.454-55.759s-0.44591-87.65 27.406-99.815c27.851-12.166 60.738 12.798 73.454 55.759z" fill="#520"/>
 <path d="m116.85 165.35c7.7676 26.243 0.27244 53.542-16.741 60.974-17.014 7.4316-37.102-7.8182-44.87-34.061-7.7676-26.243-0.27237-53.542 16.741-60.974 17.014-7.4316 37.102 7.8182 44.87 34.061z" fill="#d38d5f"/>
 <path d="m299.69 149.6c-12.716 42.961-0.44589 87.65 27.406 99.815 27.852 12.166 60.738-12.798 73.454-55.759s0.44592-87.65-27.406-99.815c-27.852-12.166-60.738 12.798-73.454 55.759z" fill="#520"/>
 <path d="m318.82 165.35c-7.7676 26.243-0.27243 53.542 16.741 60.974 17.014 7.4316 37.102-7.8182 44.87-34.061 7.7676-26.243 0.27249-53.542-16.741-60.974-17.014-7.4316-37.102 7.8181-44.87 34.061z" fill="#d38d5f"/>
 <path d="m100.83 112.91c1.8847 114.13 27.546 158.99 59.953 158.99h114.1c32.407 0 52.07 3.0313 58.561-141.86 6.4906-144.89-234.49-131.26-232.61-17.132z" fill="#520" stroke="#520" stroke-width="33.015"/>
 <path d="m160.65 61.931c-25.064 8.1584-47.374 32.003-47.374 71.466s14.889 99.232 47.374 99.232h114.37c32.485 0 47.392-59.769 47.392-99.232s-16.787-61.504-47.392-71.466c-30.604-9.962-50.848 17.947-57.185 18.214-6.3366 0.26678-32.121-26.372-57.185-18.214z" fill="#d38d5f"/>
 <path d="m287.99 160.32c0 23.418-15.627 42.402-34.904 42.402s-34.904-18.984-34.904-42.402 15.627-42.402 34.904-42.402 34.904 18.984 34.904 42.402z" fill="#fff" stroke="#000" stroke-width="8"/>
 <path d="m264.01 156.73c0 7.3329-4.8933 13.277-10.93 13.277-6.0363 0-10.93-5.9445-10.93-13.277 0-7.333 4.8934-13.278 10.93-13.278 6.0362 0 10.93 5.9445 10.93 13.278z"/>
 <path d="m287.99 156.73s-31.555-6.6388-45.305-5.9962c-13.75 0.64241-24.504 5.9962-24.504 5.9962 0-23.418 15.627-42.402 34.904-42.402s34.904 18.984 34.904 42.402z" fill="#a05a2c" stroke="#000" stroke-width="8"/>
 <path d="m216.21 163.92c0 23.418-15.627 42.402-34.904 42.402s-34.904-18.984-34.904-42.402 15.627-42.402 34.904-42.402 34.904 18.984 34.904 42.402z" fill="#fff" stroke="#000" stroke-width="8"/>
 <path d="m192.23 159.13c0 7.3329-4.8934 13.277-10.93 13.277-6.0363 0-10.93-5.9445-10.93-13.277 0-7.333 4.8934-13.278 10.93-13.278 6.0363 0 10.93 5.9445 10.93 13.278z"/>
 <path d="m216.21 159.13s-13.222-9.6369-24.151-9.2086c-24.68 0-45.658 9.2086-45.658 9.2086 0-23.418 15.627-42.402 34.904-42.402s34.904 18.984 34.904 42.402z" fill="#a05a2c" stroke="#000" stroke-width="8"/>
 <path d="m354.69 316.02s-91.668-11.992-137.5-11.992c-45.834 0-137.5 11.992-137.5 11.992 0-67.652 61.562-122.5 137.5-122.5 75.94 0 137.5 54.843 137.5 122.5z" fill="#d38d5f"/>
 <g fill="#d38d5f" stroke="#000" stroke-width=".539">
  <path d="m178.47 242.29c-16.939-3.9321-28.759-19.28-26.399-34.281 2.3595-15.001 18.004-23.974 34.944-20.042 16.939 3.9321 28.759 19.28 26.399 34.281-2.3595 15.001-18.004 23.974-34.944 20.042z"/>
  <path d="m250.43 242.29c16.939-3.9321 28.758-19.28 26.399-34.281-2.3596-15.001-18.004-23.974-34.944-20.042-16.939 3.9321-28.759 19.28-26.399 34.281 2.3595 15.001 18.004 23.974 34.944 20.042z"/>
 </g>
 <g fill="#28170b">
  <path d="m183.57 228.83c-7.2061-1.6728-12.234-8.2021-11.23-14.584 1.0038-6.3816 7.6593-10.199 14.866-8.526 7.2062 1.6728 12.234 8.2021 11.23 14.584-1.0038 6.3816-7.6593 10.199-14.866 8.526z"/>
  <path d="m244.45 228.83c7.2062-1.6728 12.234-8.2021 11.23-14.584-1.0038-6.3816-7.6593-10.199-14.866-8.526-7.2062 1.6728-12.234 8.2021-11.23 14.584 1.0038 6.3816 7.6593 10.199 14.866 8.526z"/>
 </g>
 <path d="m354.69 325.44s-91.668-11.993-137.5-11.993c-45.834 0-137.5 11.993-137.5 11.993 0 67.652 61.562 122.5 137.5 122.5 75.94 0 137.5-54.843 137.5-122.5z" fill="#d38d5f"/>
</svg>
