<svg width="307" xmlns="http://www.w3.org/2000/svg" height="468" xmlns:xlink="http://www.w3.org/1999/xlink">
<defs>
<clipPath id="clipPath5381" clipPathUnits="userSpaceOnUse">
<path style="opacity:.893;fill:#fdfdfd;stroke-linejoin:round;stroke-linecap:round;stroke-width:5" id="path5383" d="m 798.213,156.3998 c -48.5125,0 -90.277,11.9299 -108.885,29.029 -4.26886,-0.294815 -8.6095,-0.457611 -13.0198,-0.457581 -57.8916,0 -104.885,26.5159 -104.885,59.1853 0,28.5915 35.9956,52.4646 83.786,57.9799 14.8483,30.9194 81.2806,54.2634 160.925,54.2634 90.5484,0 164.043,-30.1683 164.043,-67.3438 l -.1177,-1.0826 c 29.3337,-9.23206 48.5205,-24.5016 48.5205,-41.7746 l -.4215,-4.3861 c -5.10059,-26.5094 -53.9674,-46.6206 -113.326,-46.6406 -11.4801,-22.4334 -59.4055,-38.7723 -116.62,-38.7723 z "/>
</clipPath>
<clipPath id="clipPath4253" clipPathUnits="userSpaceOnUse">
<path style="fill:url(#linearGradient4257);stroke-linejoin:round;stroke-linecap:round;stroke-width:3" id="path4255" d="m 272.4911,62.8507 c -11.6556,0 -21.0625,5.75213 -21.0625,12.875 v 830.031 169.969 640 c 0,7.12292 9.40695,12.844 21.0625,12.8438 h 2229.34 c 11.6553,0 21.031,-5.72095 21.031,-12.8438 v -640 -67.4062 -932.594 c 0,-7.12286 -9.37573,-12.875 -21.031,-12.875 h -2229.34 z "/>
</clipPath>
<clipPath id="clipPath5495" clipPathUnits="userSpaceOnUse">
<path style="opacity:.893;fill:#fdfdfd;stroke-linejoin:round;stroke-linecap:round;stroke-width:5" id="path5497" d="m 1832.4987,64.9712 c -48.5125,0 -90.277,11.9299 -108.885,29.029 -4.26892,-0.294823 -8.6095,-0.457611 -13.0199,-0.457565 -57.8916,0 -104.884,26.5159 -104.884,59.1852 0,28.5915 35.9955,52.4646 83.786,57.9799 14.8483,30.9194 81.2805,54.2634 160.925,54.2634 90.5483,0 164.043,-30.1682 164.043,-67.3438 l -.1178,-1.0826 c 29.3337,-9.23204 48.5205,-24.5015 48.5205,-41.7746 l -.4216,-4.3861 c -5.10059,-26.5094 -53.9673,-46.6206 -113.326,-46.6406 -11.4801,-22.4334 -59.4054,-38.7723 -116.62,-38.7723 z "/>
</clipPath>
<clipPath id="clipPath4234" clipPathUnits="userSpaceOnUse">
<path style="fill:#9cf000;stroke-linejoin:round;stroke-linecap:round;stroke-width:3" id="path4236" d="m -701.7946,85.7078 c -11.6556,0 -21.0625,5.75214 -21.0625,12.875 v 830.031 c 73.6815,-9.90723 153.852,-15.0625 237.156,-15.0625 343.817,0 484.306,44.1176 822.844,235.719 342.857,194.046 775.268,461.424 -891.406,464.281 -60.1047,0.103271 -116.484,-9.39807 -168.594,-25.9374 v 150.969 c 0,7.1228 9.40686,12.844 21.0625,12.8436 h 2229.34 c 11.6555,0 21.0312,-5.72083 21.0312,-12.8436 v -640 -67.4062 -932.594 c 0,-7.12286 -9.37573,-12.875 -21.0312,-12.875 h -2229.34 z "/>
</clipPath>
<clipPath id="clipPath5677" clipPathUnits="userSpaceOnUse">
<rect width="3599.5803" x="-51.16412" y="-30.42346" rx="33.340881" ry="20.374983" height="1625.4709" style="fill:url(#linearGradient5681);stroke-linejoin:round;stroke-linecap:round;stroke-width:3" id="rect5679"/>
</clipPath>
<clipPath id="clipPath5671" clipPathUnits="userSpaceOnUse">
<rect width="3815.5286" x="-59.71918" y="-42.65996" rx="35.341087" height="1722.9872" ry="21.597332" style="fill:url(#linearGradient5675);stroke-linejoin:round;stroke-linecap:round;stroke-width:3" id="rect5673"/>
</clipPath>
<linearGradient xlink:href="#linearGradient4103" id="linearGradient5675" y1="-0.189418" x1="0.474214" y2="1.000097" x2="0.474214"/>
<linearGradient xlink:href="#linearGradient4328" id="linearGradient4390" y1="0.5" x1="0.5" y2="0.5" x2="0.999999"/>
<linearGradient xlink:href="#linearGradient4336" id="linearGradient4388" y1="Infinity" x1="0.037881" y2="-Infinity" x2="0.659074"/>
<linearGradient xlink:href="#linearGradient4368" id="linearGradient4386" y1="-Infinity" x1="0.109724" y2="Infinity" x2="0.683021"/>
<linearGradient id="linearGradient4368">
<stop offset="0" style="stop-color:#69d007" id="stop4370"/>
<stop offset="1" style="stop-color:#4e9a06;stop-opacity:0" id="stop4372"/>
</linearGradient>
<linearGradient id="linearGradient4336">
<stop offset="0" style="stop-color:#458905" id="stop4338"/>
<stop offset="1" style="stop-color:#4e9a06;stop-opacity:0" id="stop4340"/>
</linearGradient>
<linearGradient xlink:href="#linearGradient4103" id="linearGradient5681" y1="-0.189418" x1="0.474214" y2="1.000097" x2="0.474214"/>
<linearGradient id="linearGradient4328">
<stop offset="0" style="stop-color:#8f5902" id="stop4330"/>
<stop offset="1" style="stop-color:#724701" id="stop4332"/>
</linearGradient>
<linearGradient id="linearGradient4103">
<stop offset="0" style="stop-color:#00acf4" id="stop4105"/>
<stop offset="1" style="stop-color:#a6e5ff" id="stop4107"/>
</linearGradient>
<linearGradient xlink:href="#linearGradient4368" id="linearGradient4384" y1="-Infinity" x1="0.43915" y2="-Infinity" x2="0.552103"/>
<linearGradient xlink:href="#linearGradient4103" id="linearGradient4257" y1="-0.116636" x1="0.474216" y2="0.615842" x2="0.474216"/>
<linearGradient xlink:href="#linearGradient4336" id="linearGradient4382" y1="Infinity" x1="0.762445" y2="Infinity" x2="0.65567"/>
</defs>
<g/>
<g>
<g style="stroke-linejoin:round;stroke-linecap:round;stroke-width:3" id="g4374">
<path style="fill:#4e9a06" id="path4314" d="m 139.6571,.0015 c -26.8066,0 -50.4083,12.1899 -64.1202,30.6297 -43.0352,7.49658 -75.5368,41.187 -75.5368,81.585 0,21.7074 9.38937,41.4753 24.7492,56.2884 -0.347504,2.98926 -0.529755,6.02872 -0.529755,9.10327 0,46.3439 40.5057,83.9514 90.4146,83.9514 24.6133,0 46.9373,-9.14963 63.246,-23.981 11.0844,5.04483 23.2701,7.84064 36.0511,7.84064 51.2457,0 92.8339,-44.8532 92.8339,-100.109 0,-55.2562 -41.5882,-100.101 -92.8339,-100.101 -0.650543,0 -1.30396,0.012146 -1.95132,0.026489 -10.5297,-26.3386 -38.9439,-45.2338 -72.3228,-45.2338 z "/>
<path style="fill:url(#linearGradient4382)" id="path4305" d="m 306.7639,145.3132 a 92.8364,100.102 0 1,1 -185.673,0"/>
<path style="fill:url(#linearGradient4384)" id="path4301" d="m 216.3493,67.815 a 76.6909,67.8109 0 1,1 -153.382,0"/>
<path style="fill:url(#linearGradient4386)" id="path4303" d="m 187.2874,112.215 a 93.6437,83.1491 0 1,1 -187.287,0"/>
<path style="opacity:.311;fill:url(#linearGradient4388)" id="path4307" d="m 205.0475,177.6041 a 90.4146,83.9564 0 1,1 -180.829,0"/>
<path style="fill:url(#linearGradient4390)" id="rect4323" d="m 110.2448,212.4218 c 47.3788,78.7743 42.5268,-21.1206 67.3578,12.5583 -17.4103,98.7533 14.2707,135.857 3.42496,239.748 -34.8206,12.5582 -31.1102,-13.129 -94.7575,-6.84998 -1.99799,-96.4699 23.404,-176.957 23.9747,-245.456 z "/>
</g>
</g>
</svg>
